<svg id="Layer_2" data-name="Layer 2" xmlns="http://www.w3.org/2000/svg" viewBox="0 0 85.22 135.39"><defs><style>.cls-1{fill:#a67e4f;}.cls-2{fill:#936e43;}.cls-3{fill:#d9ac80;}.cls-4{fill:#643616;}.cls-5{fill:#8d5122;}.cls-6{fill:#77421c;}.cls-7{fill:#231f20;}</style></defs><title>donation_station</title><polygon class="cls-1" points="41.71 82.46 42.97 58.19 54.31 64.81 64.4 58.5 64.4 69.85 41.71 82.46"/><path class="cls-2" d="M146.65,187.18v-12.6l11.66,7.56L169,175.21l-1.26,24.27S147.12,187.66,146.65,187.18Z" transform="translate(-126.06 -117.02)"/><polygon class="cls-3" points="42.97 58.19 32.25 65.12 10.5 51.57 21.22 45.58 42.97 58.19"/><polygon class="cls-3" points="42.97 58.19 54.31 64.81 75.74 51.88 63.77 45.27 42.97 58.19"/><polygon class="cls-4" points="35.4 53.78 42.65 49.99 49.9 53.78 42.97 58.19 35.4 53.78"/><polygon class="cls-5" points="21.22 45.58 43.28 32.98 42.65 49.99 35.4 53.78 21.22 45.58"/><polygon class="cls-6" points="43.28 32.98 63.77 45.27 49.9 53.78 42.65 49.99 43.28 32.98"/><polygon class="cls-3" points="10.19 38.96 32.57 26.04 43.28 32.98 21.22 45.58 10.19 38.96"/><polygon class="cls-3" points="43.28 32.98 63.77 45.27 75.11 39.28 53.68 26.36 43.28 32.98"/><path class="cls-7" d="M147.71,182.14l.16-4.34,1.74.92a.54.54,0,0,1,.24.3.85.85,0,0,1,.09.44l-.12,3.28a.42.42,0,0,1-.12.33.2.2,0,0,1-.25,0Zm1.43-.33.08-2.18-.7-.37-.08,2.17Z" transform="translate(-126.06 -117.02)"/><path class="cls-7" d="M150.38,183.61a.57.57,0,0,1-.24-.3.85.85,0,0,1-.09-.44l.12-3.29a.42.42,0,0,1,.12-.33.19.19,0,0,1,.25,0L152,180a.54.54,0,0,1,.24.3,1,1,0,0,1,.1.45l-.13,3.32a.42.42,0,0,1-.12.33.2.2,0,0,1-.25,0Zm1.11-.52.08-2.2-.71-.39-.08,2.2Z" transform="translate(-126.06 -117.02)"/><path class="cls-7" d="M152.4,184.72l.16-4.43.72.38.65,2.61.08-2.23.73.39-.16,4.48-.73-.41-.65-2.62-.08,2.22Z" transform="translate(-126.06 -117.02)"/><path class="cls-7" d="M154.82,186.05l.14-3.92a.51.51,0,0,1,.12-.34.23.23,0,0,1,.27,0l1.49.79a.58.58,0,0,1,.25.31.92.92,0,0,1,.1.45l-.14,4-.75-.41.06-1.69-.74-.4-.06,1.68Zm1.58-2,0-.56-.74-.4,0,.56Z" transform="translate(-126.06 -117.02)"/><path class="cls-7" d="M158,187.82l.13-3.41-.76-.4,0-1.13,2.28,1.2,0,1.15-.76-.41-.13,3.42Z" transform="translate(-126.06 -117.02)"/><path class="cls-7" d="M159.82,188.79l.16-4.57.77.4-.16,4.6Z" transform="translate(-126.06 -117.02)"/><path class="cls-7" d="M161.23,189.57a.67.67,0,0,1-.27-.32,1,1,0,0,1-.1-.47l.12-3.45a.46.46,0,0,1,.13-.34.23.23,0,0,1,.28,0l1.57.83a.67.67,0,0,1,.27.32,1,1,0,0,1,.11.47l-.13,3.48a.47.47,0,0,1-.13.35.24.24,0,0,1-.29,0Zm1.21-.52.09-2.31-.79-.42-.08,2.31Z" transform="translate(-126.06 -117.02)"/><path class="cls-7" d="M163.44,190.79l.17-4.65.8.42.71,2.76.09-2.34.81.43-.17,4.7-.81-.45-.72-2.77-.08,2.33Z" transform="translate(-126.06 -117.02)"/><path class="cls-7" d="M171.72,192.74v-1.17l1.61-.81v-.58l-1.21.61a.24.24,0,0,1-.29,0,.49.49,0,0,1-.11-.35v-1.75a1.08,1.08,0,0,1,.11-.47.77.77,0,0,1,.29-.32l2-1v1.16l-1.6.79v.58l1.2-.6a.24.24,0,0,1,.29,0,.48.48,0,0,1,.11.34v1.74a1.12,1.12,0,0,1-.11.47.73.73,0,0,1-.29.31Z" transform="translate(-126.06 -117.02)"/><path class="cls-7" d="M175.19,191v-3.45l-.8.39v-1.15l2.37-1.15v1.14l-.79.38v3.44Z" transform="translate(-126.06 -117.02)"/><path class="cls-7" d="M177,190.06v-4a1,1,0,0,1,.11-.45.72.72,0,0,1,.28-.31l1.54-.75a.21.21,0,0,1,.27,0,.48.48,0,0,1,.11.34v4l-.76.38v-1.7l-.78.39v1.71Zm1.55-3.62v-.57l-.78.38v.57Z" transform="translate(-126.06 -117.02)"/><path class="cls-7" d="M180.33,188.38V185l-.76.37v-1.13l2.26-1.1v1.12l-.75.37V188Z" transform="translate(-126.06 -117.02)"/><path class="cls-7" d="M182.07,187.49V183l.75-.36v4.46Z" transform="translate(-126.06 -117.02)"/><path class="cls-7" d="M183.42,186.81a.21.21,0,0,1-.26,0,.48.48,0,0,1-.1-.34V183.1a1,1,0,0,1,.1-.44.66.66,0,0,1,.26-.3l1.47-.71a.2.2,0,0,1,.25,0,.43.43,0,0,1,.11.33v3.31a.93.93,0,0,1-.11.45.58.58,0,0,1-.25.28Zm1.1-1.67v-2.21l-.73.36v2.22Z" transform="translate(-126.06 -117.02)"/><path class="cls-7" d="M185.49,185.76v-4.4l.72-.35.72,1.84v-2.19l.71-.35v4.36l-.71.36-.72-1.83v2.2Z" transform="translate(-126.06 -117.02)"/><path class="cls-7" d="M184.05,206.54l27.23-15.72v-49.2L168.67,117l-42.61,24.6v49.2l27.22,15.72h0l15.79,45.87M202.65,185l-34.06,19.67L134.53,185V145.7L168.59,126l34.06,19.67Z" transform="translate(-126.06 -117.02)"/></svg>